<?xml version="1.0" encoding="iso-8859-1"?>
<!-- Generator: Adobe Illustrator 16.0.0, SVG Export Plug-In . SVG Version: 6.00 Build 0)  -->
<!DOCTYPE svg PUBLIC "-//W3C//DTD SVG 1.1//EN" "http://www.w3.org/Graphics/SVG/1.1/DTD/svg11.dtd">
<svg version="1.1" id="Capa_1" xmlns="http://www.w3.org/2000/svg" xmlns:xlink="http://www.w3.org/1999/xlink" x="0px" y="0px"
	 width="611.994px" height="611.994px" viewBox="0 0 611.994 611.994" style="enable-background:new 0 0 611.994 611.994;"
	 xml:space="preserve">
<g>
	<g>
		<g>
			<path d="M248.172,423.918l-89.545-89.534c-5.637-5.637-5.637-14.778,0-20.416c5.643-5.644,14.78-5.644,20.417,0l69.128,69.122
				l184.796-184.802c5.644-5.643,14.78-5.643,20.417,0c5.644,5.637,5.644,14.78,0,20.417L248.172,423.918z"/>
			<path d="M306.031,611.994v-14.438l-0.022,14.438C137.286,611.994,0.012,474.726,0,306.003C0,137.274,137.274,0,305.997,0
				c168.729,0,305.997,137.274,305.997,305.997C612,474.726,474.743,611.994,306.031,611.994z M305.997,28.878
				c-152.805,0-277.119,124.314-277.119,277.119C28.89,458.796,153.209,583.11,306.009,583.11h0.022
				c152.788,0,277.091-124.314,277.091-277.113C583.122,153.192,458.802,28.878,305.997,28.878z"/>
		</g>
	</g>
</g>
<g>
</g>
<g>
</g>
<g>
</g>
<g>
</g>
<g>
</g>
<g>
</g>
<g>
</g>
<g>
</g>
<g>
</g>
<g>
</g>
<g>
</g>
<g>
</g>
<g>
</g>
<g>
</g>
<g>
</g>
</svg>
