<?xml version="1.0" encoding="utf-8"?>
<!-- Generator: Adobe Illustrator 19.0.0, SVG Export Plug-In . SVG Version: 6.00 Build 0)  -->
<svg version="1.1" id="Layer_2" xmlns="http://www.w3.org/2000/svg" xmlns:xlink="http://www.w3.org/1999/xlink" x="0px" y="0px"
	 width="100px" height="100px" viewBox="-256 379.9 100 100" style="enable-background:new -256 379.9 100 100;"
	 xml:space="preserve">
<style type="text/css">
	.st0{fill:none;}
</style>
<path class="st0" d="M-202.9,390.4c1,0.2,2,0.6,2,1.2v9.1c0,0.6-0.8,1.1-1.8,1.1h-0.3h-0.4v4.5h23.2c-2.9-10.5-12.1-18.3-23.2-19.4
	v3.6h0.4V390.4z"/>
<path class="st0" d="M-208.3,401.8h-0.6c-1,0-1.8-0.5-1.8-1.1v-9.1c0-0.6,0.8-1.1,1.8-1.1h0.6v-3.6c-11.1,1-20.3,8.9-23.2,19.4h23.2
	V401.8z"/>
<path class="st0" d="M-232.4,411.3c-0.1,0.7-0.1,1.5-0.1,2.2v32.3c0,14.7,12,26.7,26.7,26.7s26.7-12,26.7-26.7v-32.3
	c0-0.7,0-1.5-0.1-2.2H-232.4z"/>
<path d="M-205.8,381.8c-17.5,0-31.7,14.2-31.7,31.7v32.3c0,17.5,14.2,31.7,31.7,31.7c17.5,0,31.7-14.2,31.7-31.7v-32.3
	C-174.1,396-188.3,381.8-205.8,381.8z M-203.3,386.9c11.1,1,20.3,8.9,23.2,19.4h-23.2v-4.5h0.4h0.3c1,0,1.8-0.5,1.8-1.1v-9.1
	c0-0.6-1-1.1-2-1.2v0.2h-0.4V386.9z M-207.5,394.5c0-0.2,0.3-0.4,0.6-0.4h2.2V394c0.4,0.1,0.7,0.2,0.7,0.4v3.3
	c0,0.2-0.3,0.4-0.6,0.4h-0.1h-2.2c-0.4,0-0.6-0.2-0.6-0.4V394.5z M-208.3,386.9v3.6h-0.6c-1,0-1.8,0.5-1.8,1.1v9.1
	c0,0.6,0.8,1.1,1.8,1.1h0.6v4.5h-23.2C-228.5,395.8-219.4,388-208.3,386.9z M-179.1,445.8c0,14.7-12,26.7-26.7,26.7
	s-26.7-12-26.7-26.7v-32.3c0-0.7,0-1.5,0.1-2.2h53.2c0.1,0.7,0.1,1.5,0.1,2.2V445.8z"/>
</svg>
